<?xml version="1.0" encoding="UTF-8" standalone="no"?>
<!-- Created with Inkscape (http://www.inkscape.org/) -->

<svg
   xmlns:dc="http://purl.org/dc/elements/1.1/"
   xmlns:cc="http://creativecommons.org/ns#"
   xmlns:rdf="http://www.w3.org/1999/02/22-rdf-syntax-ns#"
   xmlns:svg="http://www.w3.org/2000/svg"
   xmlns="http://www.w3.org/2000/svg"
   xmlns:sodipodi="http://sodipodi.sourceforge.net/DTD/sodipodi-0.dtd"
   xmlns:inkscape="http://www.inkscape.org/namespaces/inkscape"
   width="179.46309mm"
   height="105.37976mm"
   viewBox="0 0 179.46309 105.37976"
   version="1.1"
   id="svg8"
   inkscape:version="0.92.5 (2060ec1f9f, 2020-04-08)"
   sodipodi:docname="ADeltaB.svg">
  <defs
     id="defs2" />
  <sodipodi:namedview
     id="base"
     pagecolor="#ffffff"
     bordercolor="#666666"
     borderopacity="1.0"
     inkscape:pageopacity="0.0"
     inkscape:pageshadow="2"
     inkscape:zoom="0.7"
     inkscape:cx="246.06637"
     inkscape:cy="229.27202"
     inkscape:document-units="mm"
     inkscape:current-layer="layer1"
     showgrid="false"
     fit-margin-top="0"
     fit-margin-left="0"
     fit-margin-right="0"
     fit-margin-bottom="0"
     inkscape:window-width="1848"
     inkscape:window-height="1016"
     inkscape:window-x="72"
     inkscape:window-y="27"
     inkscape:window-maximized="1" />
  <metadata
     id="metadata5">
    <rdf:RDF>
      <cc:Work
         rdf:about="">
        <dc:format>image/svg+xml</dc:format>
        <dc:type
           rdf:resource="http://purl.org/dc/dcmitype/StillImage" />
        <dc:title></dc:title>
      </cc:Work>
    </rdf:RDF>
  </metadata>
  <g
     inkscape:label="Layer 1"
     inkscape:groupmode="layer"
     id="layer1"
     transform="translate(-34.244645,-143.01251)">
    <rect
       style="fill:none;fill-opacity:1;stroke:#000000;stroke-width:1.05833328;stroke-miterlimit:100;stroke-dasharray:none;stroke-dashoffset:0;stroke-opacity:1;paint-order:stroke markers fill"
       id="rect815"
       width="178.40475"
       height="104.32143"
       x="34.773811"
       y="143.54167" />
    <ellipse
       style="fill:none;fill-opacity:1;stroke:#000000;stroke-width:1.05833328;stroke-miterlimit:100;stroke-dasharray:none;stroke-dashoffset:0;stroke-opacity:1;paint-order:stroke markers fill"
       id="path817"
       cx="103.1875"
       cy="196.8363"
       rx="35.151787"
       ry="30.616072" />
    <ellipse
       style="fill:none;fill-opacity:1;stroke:#000000;stroke-width:1.05833328;stroke-miterlimit:100;stroke-dasharray:none;stroke-dashoffset:0;stroke-opacity:1;paint-order:stroke markers fill"
       id="path817-3"
       cx="139.09523"
       cy="197.97025"
       rx="35.151787"
       ry="30.616072" />
    <text
       xml:space="preserve"
       style="font-style:normal;font-weight:normal;font-size:4.93888855px;line-height:1.25;font-family:sans-serif;letter-spacing:0px;word-spacing:0px;fill:#000000;fill-opacity:1;stroke:none;stroke-width:0.26458332"
       x="94.872025"
       y="162.44049"
       id="text836"><tspan
         sodipodi:role="line"
         id="tspan834"
         x="94.872025"
         y="162.44049"
         style="font-size:11.28888893px;stroke-width:0.26458332">A</tspan></text>
    <text
       xml:space="preserve"
       style="font-style:normal;font-weight:normal;font-size:4.93888855px;line-height:1.25;font-family:sans-serif;letter-spacing:0px;word-spacing:0px;fill:#000000;fill-opacity:1;stroke:none;stroke-width:0.26458332"
       x="143.5522"
       y="162.39757"
       id="text836-6"><tspan
         sodipodi:role="line"
         id="tspan834-7"
         x="143.5522"
         y="162.39757"
         style="font-size:11.28888893px;stroke-width:0.26458332">B</tspan></text>
    <path
       style="fill:#000000;fill-opacity:0.27727272;stroke:#000000;stroke-width:5.71428585;stroke-miterlimit:100;stroke-dasharray:none;stroke-dashoffset:0;stroke-opacity:1;paint-order:stroke markers fill"
       d="m 367.92352,526.57121 c -4.71429,-0.6729 -14.0213,-2.91089 -20.68224,-4.97331 -40.42212,-12.51586 -69.95515,-39.61518 -82.38695,-75.59769 -3.54963,-10.27403 -3.94961,-13.37686 -3.95934,-30.71429 -0.01,-17.16174 0.41212,-20.54436 3.82945,-30.71428 5.58219,-16.61254 13.03248,-28.3603 26.77051,-42.21223 18.45662,-18.60964 36.42675,-28.93501 62.27367,-35.78152 14.40738,-3.81632 41.70834,-5.1386 57.92907,-2.80569 11.45981,1.64817 33.22443,8.04706 40.70894,11.96859 l 3.57412,1.87267 -8.59432,5.30471 c -26.79714,16.54014 -46.2445,42.07124 -54.03527,70.93918 -5.63714,20.88787 -2.30687,52.19102 7.64614,71.87046 8.4655,16.73829 24.38092,35.0655 40.23113,46.32767 3.38913,2.4081 5.63913,4.6919 5,5.0751 -3.7067,2.22237 -25.77354,8.14794 -35.25291,9.46642 -12.71401,1.76834 -30.55724,1.75767 -43.052,-0.0259 z"
       id="path858"
       inkscape:connector-curvature="0"
       transform="matrix(0.26458333,0,0,0.26458333,0,87)" />
    <path
       style="fill:#000000;fill-opacity:0.27727272;stroke:#000000;stroke-width:5.71428585;stroke-miterlimit:100;stroke-dasharray:none;stroke-dashoffset:0;stroke-opacity:1;paint-order:stroke markers fill"
       d="m 503.6378,530.84428 c -14.27772,-2.05898 -42.14285,-11.38376 -42.14285,-14.10266 0,-0.57727 3.94307,-3.4834 8.76238,-6.45804 24.70396,-15.24816 44.61669,-41.77193 52.07654,-69.36601 3.79853,-14.05078 3.51011,-38.92018 -0.62032,-53.48879 -7.4708,-26.35055 -25.23654,-50.04759 -50.12574,-66.8608 l -3.47857,-2.34985 5.5066,-2.30081 c 19.92345,-8.32455 53.23492,-11.4418 77.37863,-7.24102 28.51362,4.9611 53.04332,17.50513 72.76586,37.21109 59.95792,59.9075 31.88165,152.60345 -54.46716,179.82746 -19.99829,6.30506 -44.32443,8.20557 -65.65537,5.12943 z"
       id="path860"
       inkscape:connector-curvature="0"
       transform="matrix(0.26458333,0,0,0.26458333,0,87)" />
  </g>
</svg>
