<?xml version="1.0" encoding="utf-8" standalone="no"?>
<!DOCTYPE svg PUBLIC "-//W3C//DTD SVG 1.1//EN"
  "http://www.w3.org/Graphics/SVG/1.1/DTD/svg11.dtd">
<svg xmlns:xlink="http://www.w3.org/1999/xlink" width="377.8825pt" height="317.195187pt" viewBox="0 0 377.8825 317.195187" xmlns="http://www.w3.org/2000/svg" version="1.1">
 <metadata>
  <rdf:RDF xmlns:dc="http://purl.org/dc/elements/1.1/" xmlns:cc="http://creativecommons.org/ns#" xmlns:rdf="http://www.w3.org/1999/02/22-rdf-syntax-ns#">
   <cc:Work>
    <dc:type rdf:resource="http://purl.org/dc/dcmitype/StillImage"/>
    <dc:date>2023-12-03T19:24:06.357158</dc:date>
    <dc:format>image/svg+xml</dc:format>
    <dc:creator>
     <cc:Agent>
      <dc:title>Matplotlib v3.7.1, https://matplotlib.org/</dc:title>
     </cc:Agent>
    </dc:creator>
   </cc:Work>
  </rdf:RDF>
 </metadata>
 <defs>
  <style type="text/css">*{stroke-linejoin: round; stroke-linecap: butt}</style>
 </defs>
 <g id="figure_1">
  <g id="patch_1">
   <path d="M 0 317.195187 
L 377.8825 317.195187 
L 377.8825 0 
L 0 0 
z
" style="fill: #ffffff"/>
  </g>
  <g id="axes_1">
   <g id="line2d_1">
    <path d="M 239.168431 53.771704 
L 57.681023 239.910004 
" clip-path="url(#p52d2dcf0be)" style="fill: none; stroke: #000000; stroke-width: 3; stroke-linecap: square"/>
   </g>
   <g id="line2d_2">
    <path d="M 34.624135 131.432804 
L 138.84466 283.851296 
" clip-path="url(#p52d2dcf0be)" style="fill: none; stroke: #000000; stroke-width: 3; stroke-linecap: square"/>
   </g>
   <g id="line2d_3">
    <path d="M 320.332068 97.712996 
L 189.006545 47.8515 
" clip-path="url(#p52d2dcf0be)" style="fill: none; stroke: #000000; stroke-width: 3; stroke-linecap: square"/>
   </g>
   <g id="line2d_4">
    <path d="M 343.388956 131.432804 
L 284.420122 70.952804 
" clip-path="url(#p52d2dcf0be)" style="fill: none; stroke: #000000; stroke-width: 3; stroke-linecap: square"/>
   </g>
   <g id="line2d_5">
    <path d="M 26.679273 168.8115 
L 57.681023 239.910004 
" clip-path="url(#p52d2dcf0be)" style="fill: none; stroke: #000000; stroke-width: 3; stroke-linecap: square"/>
   </g>
   <g id="line2d_6">
    <path d="M 343.388956 131.432804 
L 320.332068 239.910004 
" clip-path="url(#p52d2dcf0be)" style="fill: none; stroke: #000000; stroke-width: 3; stroke-linecap: square"/>
   </g>
   <g id="line2d_7">
    <path d="M 138.84466 53.771704 
L 34.624135 206.190196 
" clip-path="url(#p52d2dcf0be)" style="fill: none; stroke: #000000; stroke-width: 3; stroke-linecap: square"/>
   </g>
   <g id="line2d_8">
    <path d="M 93.592969 70.952804 
L 239.168431 283.851296 
" clip-path="url(#p52d2dcf0be)" style="fill: none; stroke: #000000; stroke-width: 3; stroke-linecap: square"/>
   </g>
   <g id="line2d_9">
    <path d="M 320.332068 239.910004 
L 343.388956 206.190196 
" clip-path="url(#p52d2dcf0be)" style="fill: none; stroke: #000000; stroke-width: 3; stroke-linecap: square"/>
   </g>
   <g id="line2d_10">
    <path d="M 138.84466 53.771704 
L 284.420122 266.670196 
" clip-path="url(#p52d2dcf0be)" style="fill: none; stroke: #000000; stroke-width: 3; stroke-linecap: square"/>
   </g>
   <g id="line2d_11">
    <path d="M 57.681023 239.910004 
L 189.006545 289.7715 
" clip-path="url(#p52d2dcf0be)" style="fill: none; stroke: #000000; stroke-width: 3; stroke-linecap: square"/>
   </g>
   <g id="line2d_12">
    <path d="M 239.168431 53.771704 
L 138.84466 283.851296 
" clip-path="url(#p52d2dcf0be)" style="fill: none; stroke: #000000; stroke-width: 3; stroke-linecap: square"/>
   </g>
   <g id="line2d_13">
    <path d="M 284.420122 70.952804 
L 320.332068 239.910004 
" clip-path="url(#p52d2dcf0be)" style="fill: none; stroke: #000000; stroke-width: 3; stroke-linecap: square"/>
   </g>
   <g id="line2d_14">
    <path d="M 189.006545 47.8515 
L 34.624135 131.432804 
" clip-path="url(#p52d2dcf0be)" style="fill: none; stroke: #000000; stroke-width: 3; stroke-linecap: square"/>
   </g>
   <g id="line2d_15">
    <path d="M 57.681023 239.910004 
L 320.332068 239.910004 
" clip-path="url(#p52d2dcf0be)" style="fill: none; stroke: #000000; stroke-width: 3; stroke-linecap: square"/>
   </g>
   <g id="line2d_16">
    <path d="M 239.168431 53.771704 
L 284.420122 266.670196 
" clip-path="url(#p52d2dcf0be)" style="fill: none; stroke: #000000; stroke-width: 3; stroke-linecap: square"/>
   </g>
   <g id="line2d_17">
    <path d="M 138.84466 283.851296 
L 189.006545 289.7715 
" clip-path="url(#p52d2dcf0be)" style="fill: none; stroke: #000000; stroke-width: 3; stroke-linecap: square"/>
   </g>
   <g id="line2d_18">
    <path d="M 57.681023 97.712996 
L 34.624135 206.190196 
" clip-path="url(#p52d2dcf0be)" style="fill: none; stroke: #000000; stroke-width: 3; stroke-linecap: square"/>
   </g>
   <g id="line2d_19">
    <path d="M 284.420122 70.952804 
L 57.681023 239.910004 
" clip-path="url(#p52d2dcf0be)" style="fill: none; stroke: #000000; stroke-width: 3; stroke-linecap: square"/>
   </g>
   <g id="line2d_20">
    <path d="M 351.333818 168.8115 
L 93.592969 70.952804 
" clip-path="url(#p52d2dcf0be)" style="fill: none; stroke: #000000; stroke-width: 3; stroke-linecap: square"/>
   </g>
   <g id="line2d_21">
    <path d="M 320.332068 97.712996 
L 239.168431 53.771704 
" clip-path="url(#p52d2dcf0be)" style="fill: none; stroke: #000000; stroke-width: 3; stroke-linecap: square"/>
   </g>
   <g id="line2d_22">
    <path d="M 34.624135 206.190196 
L 239.168431 283.851296 
" clip-path="url(#p52d2dcf0be)" style="fill: none; stroke: #000000; stroke-width: 3; stroke-linecap: square"/>
   </g>
   <g id="line2d_23">
    <path d="M 57.681023 97.712996 
L 284.420122 266.670196 
" clip-path="url(#p52d2dcf0be)" style="fill: none; stroke: #000000; stroke-width: 3; stroke-linecap: square"/>
   </g>
   <g id="line2d_24">
    <path d="M 34.624135 206.190196 
L 93.592969 266.670196 
" clip-path="url(#p52d2dcf0be)" style="fill: none; stroke: #000000; stroke-width: 3; stroke-linecap: square"/>
   </g>
   <g id="line2d_25">
    <path d="M 26.679273 168.8115 
L 284.420122 266.670196 
" clip-path="url(#p52d2dcf0be)" style="fill: none; stroke: #000000; stroke-width: 3; stroke-linecap: square"/>
   </g>
   <g id="line2d_26">
    <path d="M 93.592969 70.952804 
L 34.624135 131.432804 
" clip-path="url(#p52d2dcf0be)" style="fill: none; stroke: #000000; stroke-width: 3; stroke-linecap: square"/>
   </g>
   <g id="line2d_27">
    <path d="M 138.84466 53.771704 
L 93.592969 266.670196 
" clip-path="url(#p52d2dcf0be)" style="fill: none; stroke: #000000; stroke-width: 3; stroke-linecap: square"/>
   </g>
   <g id="line2d_28">
    <path d="M 138.84466 53.771704 
L 239.168431 283.851296 
" clip-path="url(#p52d2dcf0be)" style="fill: none; stroke: #000000; stroke-width: 3; stroke-linecap: square"/>
   </g>
   <g id="line2d_29">
    <path d="M 284.420122 70.952804 
L 34.624135 206.190196 
" clip-path="url(#p52d2dcf0be)" style="fill: none; stroke: #000000; stroke-width: 3; stroke-linecap: square"/>
   </g>
   <g id="line2d_30">
    <path d="M 239.168431 53.771704 
L 93.592969 266.670196 
" clip-path="url(#p52d2dcf0be)" style="fill: none; stroke: #000000; stroke-width: 3; stroke-linecap: square"/>
   </g>
   <g id="line2d_31">
    <path d="M 189.006545 47.8515 
L 138.84466 283.851296 
" clip-path="url(#p52d2dcf0be)" style="fill: none; stroke: #000000; stroke-width: 3; stroke-linecap: square"/>
   </g>
   <g id="line2d_32">
    <path d="M 351.333818 168.8115 
L 284.420122 70.952804 
" clip-path="url(#p52d2dcf0be)" style="fill: none; stroke: #000000; stroke-width: 3; stroke-linecap: square"/>
   </g>
   <g id="line2d_33">
    <path d="M 57.681023 97.712996 
L 26.679273 168.8115 
" clip-path="url(#p52d2dcf0be)" style="fill: none; stroke: #000000; stroke-width: 3; stroke-linecap: square"/>
   </g>
   <g id="line2d_34">
    <path d="M 351.333818 168.8115 
L 34.624135 131.432804 
" clip-path="url(#p52d2dcf0be)" style="fill: none; stroke: #000000; stroke-width: 3; stroke-linecap: square"/>
   </g>
   <g id="line2d_35">
    <path d="M 93.592969 70.952804 
L 34.624135 206.190196 
" clip-path="url(#p52d2dcf0be)" style="fill: none; stroke: #000000; stroke-width: 3; stroke-linecap: square"/>
   </g>
   <g id="line2d_36">
    <path d="M 320.332068 97.712996 
L 284.420122 70.952804 
" clip-path="url(#p52d2dcf0be)" style="fill: none; stroke: #000000; stroke-width: 3; stroke-linecap: square"/>
   </g>
   <g id="line2d_37">
    <path d="M 57.681023 97.712996 
L 343.388956 206.190196 
" clip-path="url(#p52d2dcf0be)" style="fill: none; stroke: #000000; stroke-width: 3; stroke-linecap: square"/>
   </g>
   <g id="line2d_38">
    <path d="M 351.333818 168.8115 
L 189.006545 289.7715 
" clip-path="url(#p52d2dcf0be)" style="fill: none; stroke: #000000; stroke-width: 3; stroke-linecap: square"/>
   </g>
   <g id="line2d_39">
    <path d="M 93.592969 266.670196 
L 189.006545 289.7715 
" clip-path="url(#p52d2dcf0be)" style="fill: none; stroke: #000000; stroke-width: 3; stroke-linecap: square"/>
   </g>
   <g id="line2d_40">
    <path d="M 343.388956 131.432804 
L 343.388956 206.190196 
" clip-path="url(#p52d2dcf0be)" style="fill: none; stroke: #000000; stroke-width: 3; stroke-linecap: square"/>
   </g>
   <g id="line2d_41">
    <path d="M 239.168431 283.851296 
L 284.420122 266.670196 
" clip-path="url(#p52d2dcf0be)" style="fill: none; stroke: #000000; stroke-width: 3; stroke-linecap: square"/>
   </g>
   <g id="line2d_42">
    <path d="M 93.592969 70.952804 
L 138.84466 283.851296 
" clip-path="url(#p52d2dcf0be)" style="fill: none; stroke: #000000; stroke-width: 3; stroke-linecap: square"/>
   </g>
   <g id="line2d_43">
    <path d="M 284.420122 70.952804 
L 34.624135 206.190196 
" clip-path="url(#p52d2dcf0be)" style="fill: none; stroke-dasharray: 3.7,1.6; stroke-dashoffset: 0; stroke: #ff7f0e"/>
   </g>
   <g id="line2d_44">
    <path d="M 34.624135 206.190196 
L 138.84466 53.771704 
" clip-path="url(#p52d2dcf0be)" style="fill: none; stroke-dasharray: 3.7,1.6; stroke-dashoffset: 0; stroke: #ff7f0e"/>
   </g>
   <g id="line2d_45">
    <path d="M 138.84466 53.771704 
L 93.592969 266.670196 
" clip-path="url(#p52d2dcf0be)" style="fill: none; stroke-dasharray: 3.7,1.6; stroke-dashoffset: 0; stroke: #ff7f0e"/>
   </g>
   <g id="line2d_46">
    <path d="M 93.592969 266.670196 
L 189.006545 289.7715 
" clip-path="url(#p52d2dcf0be)" style="fill: none; stroke-dasharray: 3.7,1.6; stroke-dashoffset: 0; stroke: #ff7f0e"/>
   </g>
   <g id="line2d_47">
    <path d="M 189.006545 289.7715 
L 138.84466 283.851296 
" clip-path="url(#p52d2dcf0be)" style="fill: none; stroke-dasharray: 3.7,1.6; stroke-dashoffset: 0; stroke: #ff7f0e"/>
   </g>
   <g id="line2d_48">
    <path d="M 138.84466 283.851296 
L 189.006545 47.8515 
" clip-path="url(#p52d2dcf0be)" style="fill: none; stroke-dasharray: 3.7,1.6; stroke-dashoffset: 0; stroke: #ff7f0e"/>
   </g>
   <g id="line2d_49">
    <path d="M 189.006545 47.8515 
L 34.624135 131.432804 
" clip-path="url(#p52d2dcf0be)" style="fill: none; stroke-dasharray: 3.7,1.6; stroke-dashoffset: 0; stroke: #ff7f0e"/>
   </g>
   <g id="line2d_50">
    <path d="M 34.624135 131.432804 
L 351.333818 168.8115 
" clip-path="url(#p52d2dcf0be)" style="fill: none; stroke-dasharray: 3.7,1.6; stroke-dashoffset: 0; stroke: #ff7f0e"/>
   </g>
   <g id="line2d_51">
    <path d="M 351.333818 168.8115 
L 93.592969 70.952804 
" clip-path="url(#p52d2dcf0be)" style="fill: none; stroke-dasharray: 3.7,1.6; stroke-dashoffset: 0; stroke: #ff7f0e"/>
   </g>
   <g id="line2d_52">
    <path d="M 93.592969 70.952804 
L 239.168431 283.851296 
" clip-path="url(#p52d2dcf0be)" style="fill: none; stroke-dasharray: 3.7,1.6; stroke-dashoffset: 0; stroke: #ff7f0e"/>
   </g>
   <g id="line2d_53">
    <path d="M 239.168431 283.851296 
L 284.420122 266.670196 
" clip-path="url(#p52d2dcf0be)" style="fill: none; stroke-dasharray: 3.7,1.6; stroke-dashoffset: 0; stroke: #ff7f0e"/>
   </g>
   <g id="line2d_54">
    <path d="M 284.420122 266.670196 
L 26.679273 168.8115 
" clip-path="url(#p52d2dcf0be)" style="fill: none; stroke-dasharray: 3.7,1.6; stroke-dashoffset: 0; stroke: #ff7f0e"/>
   </g>
   <g id="line2d_55">
    <path d="M 26.679273 168.8115 
L 57.681023 97.712996 
" clip-path="url(#p52d2dcf0be)" style="fill: none; stroke-dasharray: 3.7,1.6; stroke-dashoffset: 0; stroke: #ff7f0e"/>
   </g>
   <g id="line2d_56">
    <path d="M 57.681023 97.712996 
L 343.388956 206.190196 
" clip-path="url(#p52d2dcf0be)" style="fill: none; stroke-dasharray: 3.7,1.6; stroke-dashoffset: 0; stroke: #ff7f0e"/>
   </g>
   <g id="line2d_57">
    <path d="M 343.388956 206.190196 
L 343.388956 131.432804 
" clip-path="url(#p52d2dcf0be)" style="fill: none; stroke-dasharray: 3.7,1.6; stroke-dashoffset: 0; stroke: #ff7f0e"/>
   </g>
   <g id="line2d_58">
    <path d="M 343.388956 131.432804 
L 320.332068 239.910004 
" clip-path="url(#p52d2dcf0be)" style="fill: none; stroke-dasharray: 3.7,1.6; stroke-dashoffset: 0; stroke: #ff7f0e"/>
   </g>
   <g id="line2d_59">
    <path d="M 320.332068 239.910004 
L 57.681023 239.910004 
" clip-path="url(#p52d2dcf0be)" style="fill: none; stroke-dasharray: 3.7,1.6; stroke-dashoffset: 0; stroke: #ff7f0e"/>
   </g>
   <g id="line2d_60">
    <path d="M 57.681023 239.910004 
L 239.168431 53.771704 
" clip-path="url(#p52d2dcf0be)" style="fill: none; stroke-dasharray: 3.7,1.6; stroke-dashoffset: 0; stroke: #ff7f0e"/>
   </g>
   <g id="line2d_61">
    <path d="M 239.168431 53.771704 
L 320.332068 97.712996 
" clip-path="url(#p52d2dcf0be)" style="fill: none; stroke-dasharray: 3.7,1.6; stroke-dashoffset: 0; stroke: #ff7f0e"/>
   </g>
   <g id="line2d_62">
    <path d="M 320.332068 97.712996 
L 284.420122 70.952804 
" clip-path="url(#p52d2dcf0be)" style="fill: none; stroke-dasharray: 3.7,1.6; stroke-dashoffset: 0; stroke: #ff7f0e"/>
   </g>
   <g id="text_1">
    <!-- 0 -->
    <g transform="translate(364.32 174.8595) scale(0.1 -0.1)">
     <defs>
      <path id="DejaVuSans-30" d="M 2034 4250 
Q 1547 4250 1301 3770 
Q 1056 3291 1056 2328 
Q 1056 1369 1301 889 
Q 1547 409 2034 409 
Q 2525 409 2770 889 
Q 3016 1369 3016 2328 
Q 3016 3291 2770 3770 
Q 2525 4250 2034 4250 
z
M 2034 4750 
Q 2819 4750 3233 4129 
Q 3647 3509 3647 2328 
Q 3647 1150 3233 529 
Q 2819 -91 2034 -91 
Q 1250 -91 836 529 
Q 422 1150 422 2328 
Q 422 3509 836 4129 
Q 1250 4750 2034 4750 
z
" transform="scale(0.015625)"/>
     </defs>
     <use xlink:href="#DejaVuSans-30"/>
    </g>
   </g>
   <g id="text_2">
    <!-- 1 -->
    <g transform="translate(355.580652 133.742935) scale(0.1 -0.1)">
     <defs>
      <path id="DejaVuSans-31" d="M 794 531 
L 1825 531 
L 1825 4091 
L 703 3866 
L 703 4441 
L 1819 4666 
L 2450 4666 
L 2450 531 
L 3481 531 
L 3481 0 
L 794 0 
L 794 531 
z
" transform="scale(0.015625)"/>
     </defs>
     <use xlink:href="#DejaVuSans-31"/>
    </g>
   </g>
   <g id="text_3">
    <!-- 2 -->
    <g transform="translate(330.218075 96.651145) scale(0.1 -0.1)">
     <defs>
      <path id="DejaVuSans-32" d="M 1228 531 
L 3431 531 
L 3431 0 
L 469 0 
L 469 531 
Q 828 903 1448 1529 
Q 2069 2156 2228 2338 
Q 2531 2678 2651 2914 
Q 2772 3150 2772 3378 
Q 2772 3750 2511 3984 
Q 2250 4219 1831 4219 
Q 1534 4219 1204 4116 
Q 875 4013 500 3803 
L 500 4441 
Q 881 4594 1212 4672 
Q 1544 4750 1819 4750 
Q 2544 4750 2975 4387 
Q 3406 4025 3406 3419 
Q 3406 3131 3298 2873 
Q 3191 2616 2906 2266 
Q 2828 2175 2409 1742 
Q 1991 1309 1228 531 
z
" transform="scale(0.015625)"/>
     </defs>
     <use xlink:href="#DejaVuSans-32"/>
    </g>
   </g>
   <g id="text_4">
    <!-- 3 -->
    <g transform="translate(290.714935 67.214935) scale(0.1 -0.1)">
     <defs>
      <path id="DejaVuSans-33" d="M 2597 2516 
Q 3050 2419 3304 2112 
Q 3559 1806 3559 1356 
Q 3559 666 3084 287 
Q 2609 -91 1734 -91 
Q 1441 -91 1130 -33 
Q 819 25 488 141 
L 488 750 
Q 750 597 1062 519 
Q 1375 441 1716 441 
Q 2309 441 2620 675 
Q 2931 909 2931 1356 
Q 2931 1769 2642 2001 
Q 2353 2234 1838 2234 
L 1294 2234 
L 1294 2753 
L 1863 2753 
Q 2328 2753 2575 2939 
Q 2822 3125 2822 3475 
Q 2822 3834 2567 4026 
Q 2313 4219 1838 4219 
Q 1578 4219 1281 4162 
Q 984 4106 628 3988 
L 628 4550 
Q 988 4650 1302 4700 
Q 1616 4750 1894 4750 
Q 2613 4750 3031 4423 
Q 3450 4097 3450 3541 
Q 3450 3153 3228 2886 
Q 3006 2619 2597 2516 
z
" transform="scale(0.015625)"/>
     </defs>
     <use xlink:href="#DejaVuSans-33"/>
    </g>
   </g>
   <g id="text_5">
    <!-- 4 -->
    <g transform="translate(240.938075 48.315724) scale(0.1 -0.1)">
     <defs>
      <path id="DejaVuSans-34" d="M 2419 4116 
L 825 1625 
L 2419 1625 
L 2419 4116 
z
M 2253 4666 
L 3047 4666 
L 3047 1625 
L 3713 1625 
L 3713 1100 
L 3047 1100 
L 3047 0 
L 2419 0 
L 2419 1100 
L 313 1100 
L 313 1709 
L 2253 4666 
z
" transform="scale(0.015625)"/>
     </defs>
     <use xlink:href="#DejaVuSans-34"/>
    </g>
   </g>
   <g id="text_6">
    <!-- 5 -->
    <g transform="translate(185.76 41.8035) scale(0.1 -0.1)">
     <defs>
      <path id="DejaVuSans-35" d="M 691 4666 
L 3169 4666 
L 3169 4134 
L 1269 4134 
L 1269 2991 
Q 1406 3038 1543 3061 
Q 1681 3084 1819 3084 
Q 2600 3084 3056 2656 
Q 3513 2228 3513 1497 
Q 3513 744 3044 326 
Q 2575 -91 1722 -91 
Q 1428 -91 1123 -41 
Q 819 9 494 109 
L 494 744 
Q 775 591 1075 516 
Q 1375 441 1709 441 
Q 2250 441 2565 725 
Q 2881 1009 2881 1497 
Q 2881 1984 2565 2268 
Q 2250 2553 1709 2553 
Q 1456 2553 1204 2497 
Q 953 2441 691 2322 
L 691 4666 
z
" transform="scale(0.015625)"/>
     </defs>
     <use xlink:href="#DejaVuSans-35"/>
    </g>
   </g>
   <g id="text_7">
    <!-- 6 -->
    <g transform="translate(130.581925 48.315724) scale(0.1 -0.1)">
     <defs>
      <path id="DejaVuSans-36" d="M 2113 2584 
Q 1688 2584 1439 2293 
Q 1191 2003 1191 1497 
Q 1191 994 1439 701 
Q 1688 409 2113 409 
Q 2538 409 2786 701 
Q 3034 994 3034 1497 
Q 3034 2003 2786 2293 
Q 2538 2584 2113 2584 
z
M 3366 4563 
L 3366 3988 
Q 3128 4100 2886 4159 
Q 2644 4219 2406 4219 
Q 1781 4219 1451 3797 
Q 1122 3375 1075 2522 
Q 1259 2794 1537 2939 
Q 1816 3084 2150 3084 
Q 2853 3084 3261 2657 
Q 3669 2231 3669 1497 
Q 3669 778 3244 343 
Q 2819 -91 2113 -91 
Q 1303 -91 875 529 
Q 447 1150 447 2328 
Q 447 3434 972 4092 
Q 1497 4750 2381 4750 
Q 2619 4750 2861 4703 
Q 3103 4656 3366 4563 
z
" transform="scale(0.015625)"/>
     </defs>
     <use xlink:href="#DejaVuSans-36"/>
    </g>
   </g>
   <g id="text_8">
    <!-- 7 -->
    <g transform="translate(80.805065 67.214935) scale(0.1 -0.1)">
     <defs>
      <path id="DejaVuSans-37" d="M 525 4666 
L 3525 4666 
L 3525 4397 
L 1831 0 
L 1172 0 
L 2766 4134 
L 525 4134 
L 525 4666 
z
" transform="scale(0.015625)"/>
     </defs>
     <use xlink:href="#DejaVuSans-37"/>
    </g>
   </g>
   <g id="text_9">
    <!-- 8 -->
    <g transform="translate(41.301925 96.651145) scale(0.1 -0.1)">
     <defs>
      <path id="DejaVuSans-38" d="M 2034 2216 
Q 1584 2216 1326 1975 
Q 1069 1734 1069 1313 
Q 1069 891 1326 650 
Q 1584 409 2034 409 
Q 2484 409 2743 651 
Q 3003 894 3003 1313 
Q 3003 1734 2745 1975 
Q 2488 2216 2034 2216 
z
M 1403 2484 
Q 997 2584 770 2862 
Q 544 3141 544 3541 
Q 544 4100 942 4425 
Q 1341 4750 2034 4750 
Q 2731 4750 3128 4425 
Q 3525 4100 3525 3541 
Q 3525 3141 3298 2862 
Q 3072 2584 2669 2484 
Q 3125 2378 3379 2068 
Q 3634 1759 3634 1313 
Q 3634 634 3220 271 
Q 2806 -91 2034 -91 
Q 1263 -91 848 271 
Q 434 634 434 1313 
Q 434 1759 690 2068 
Q 947 2378 1403 2484 
z
M 1172 3481 
Q 1172 3119 1398 2916 
Q 1625 2713 2034 2713 
Q 2441 2713 2670 2916 
Q 2900 3119 2900 3481 
Q 2900 3844 2670 4047 
Q 2441 4250 2034 4250 
Q 1625 4250 1398 4047 
Q 1172 3844 1172 3481 
z
" transform="scale(0.015625)"/>
     </defs>
     <use xlink:href="#DejaVuSans-38"/>
    </g>
   </g>
   <g id="text_10">
    <!-- 9 -->
    <g transform="translate(15.939348 133.742935) scale(0.1 -0.1)">
     <defs>
      <path id="DejaVuSans-39" d="M 703 97 
L 703 672 
Q 941 559 1184 500 
Q 1428 441 1663 441 
Q 2288 441 2617 861 
Q 2947 1281 2994 2138 
Q 2813 1869 2534 1725 
Q 2256 1581 1919 1581 
Q 1219 1581 811 2004 
Q 403 2428 403 3163 
Q 403 3881 828 4315 
Q 1253 4750 1959 4750 
Q 2769 4750 3195 4129 
Q 3622 3509 3622 2328 
Q 3622 1225 3098 567 
Q 2575 -91 1691 -91 
Q 1453 -91 1209 -44 
Q 966 3 703 97 
z
M 1959 2075 
Q 2384 2075 2632 2365 
Q 2881 2656 2881 3163 
Q 2881 3666 2632 3958 
Q 2384 4250 1959 4250 
Q 1534 4250 1286 3958 
Q 1038 3666 1038 3163 
Q 1038 2656 1286 2365 
Q 1534 2075 1959 2075 
z
" transform="scale(0.015625)"/>
     </defs>
     <use xlink:href="#DejaVuSans-39"/>
    </g>
   </g>
   <g id="text_11">
    <!-- 10 -->
    <g transform="translate(7.2 174.8595) scale(0.1 -0.1)">
     <use xlink:href="#DejaVuSans-31"/>
     <use xlink:href="#DejaVuSans-30" x="63.623047"/>
    </g>
   </g>
   <g id="text_12">
    <!-- 11 -->
    <g transform="translate(15.939348 215.976065) scale(0.1 -0.1)">
     <use xlink:href="#DejaVuSans-31"/>
     <use xlink:href="#DejaVuSans-31" x="63.623047"/>
    </g>
   </g>
   <g id="text_13">
    <!-- 12 -->
    <g transform="translate(41.301925 253.067855) scale(0.1 -0.1)">
     <use xlink:href="#DejaVuSans-31"/>
     <use xlink:href="#DejaVuSans-32" x="63.623047"/>
    </g>
   </g>
   <g id="text_14">
    <!-- 13 -->
    <g transform="translate(80.805065 282.504065) scale(0.1 -0.1)">
     <use xlink:href="#DejaVuSans-31"/>
     <use xlink:href="#DejaVuSans-33" x="63.623047"/>
    </g>
   </g>
   <g id="text_15">
    <!-- 14 -->
    <g transform="translate(130.581925 301.403276) scale(0.1 -0.1)">
     <use xlink:href="#DejaVuSans-31"/>
     <use xlink:href="#DejaVuSans-34" x="63.623047"/>
    </g>
   </g>
   <g id="text_16">
    <!-- 15 -->
    <g transform="translate(185.76 307.9155) scale(0.1 -0.1)">
     <use xlink:href="#DejaVuSans-31"/>
     <use xlink:href="#DejaVuSans-35" x="63.623047"/>
    </g>
   </g>
   <g id="text_17">
    <!-- 16 -->
    <g transform="translate(240.938075 301.403276) scale(0.1 -0.1)">
     <use xlink:href="#DejaVuSans-31"/>
     <use xlink:href="#DejaVuSans-36" x="63.623047"/>
    </g>
   </g>
   <g id="text_18">
    <!-- 17 -->
    <g transform="translate(290.714935 282.504065) scale(0.1 -0.1)">
     <use xlink:href="#DejaVuSans-31"/>
     <use xlink:href="#DejaVuSans-37" x="63.623047"/>
    </g>
   </g>
   <g id="text_19">
    <!-- 18 -->
    <g transform="translate(330.218075 253.067855) scale(0.1 -0.1)">
     <use xlink:href="#DejaVuSans-31"/>
     <use xlink:href="#DejaVuSans-38" x="63.623047"/>
    </g>
   </g>
   <g id="text_20">
    <!-- 19 -->
    <g transform="translate(355.580652 215.976065) scale(0.1 -0.1)">
     <use xlink:href="#DejaVuSans-31"/>
     <use xlink:href="#DejaVuSans-39" x="63.623047"/>
    </g>
   </g>
   <g id="text_21">
    <!-- 3,11,6,13,15,14,5,9,0,7,16,17,10,8,19,1,18,12,4,2 -->
    <g transform="translate(38.25092 16.318125) scale(0.12 -0.12)">
     <defs>
      <path id="DejaVuSans-2c" d="M 750 794 
L 1409 794 
L 1409 256 
L 897 -744 
L 494 -744 
L 750 256 
L 750 794 
z
" transform="scale(0.015625)"/>
     </defs>
     <use xlink:href="#DejaVuSans-33"/>
     <use xlink:href="#DejaVuSans-2c" x="63.623047"/>
     <use xlink:href="#DejaVuSans-31" x="95.410156"/>
     <use xlink:href="#DejaVuSans-31" x="159.033203"/>
     <use xlink:href="#DejaVuSans-2c" x="222.65625"/>
     <use xlink:href="#DejaVuSans-36" x="254.443359"/>
     <use xlink:href="#DejaVuSans-2c" x="318.066406"/>
     <use xlink:href="#DejaVuSans-31" x="349.853516"/>
     <use xlink:href="#DejaVuSans-33" x="413.476562"/>
     <use xlink:href="#DejaVuSans-2c" x="477.099609"/>
     <use xlink:href="#DejaVuSans-31" x="508.886719"/>
     <use xlink:href="#DejaVuSans-35" x="572.509766"/>
     <use xlink:href="#DejaVuSans-2c" x="636.132812"/>
     <use xlink:href="#DejaVuSans-31" x="667.919922"/>
     <use xlink:href="#DejaVuSans-34" x="731.542969"/>
     <use xlink:href="#DejaVuSans-2c" x="795.166016"/>
     <use xlink:href="#DejaVuSans-35" x="826.953125"/>
     <use xlink:href="#DejaVuSans-2c" x="890.576172"/>
     <use xlink:href="#DejaVuSans-39" x="922.363281"/>
     <use xlink:href="#DejaVuSans-2c" x="985.986328"/>
     <use xlink:href="#DejaVuSans-30" x="1017.773438"/>
     <use xlink:href="#DejaVuSans-2c" x="1081.396484"/>
     <use xlink:href="#DejaVuSans-37" x="1113.183594"/>
     <use xlink:href="#DejaVuSans-2c" x="1176.806641"/>
     <use xlink:href="#DejaVuSans-31" x="1208.59375"/>
     <use xlink:href="#DejaVuSans-36" x="1272.216797"/>
     <use xlink:href="#DejaVuSans-2c" x="1335.839844"/>
     <use xlink:href="#DejaVuSans-31" x="1367.626953"/>
     <use xlink:href="#DejaVuSans-37" x="1431.25"/>
     <use xlink:href="#DejaVuSans-2c" x="1494.873047"/>
     <use xlink:href="#DejaVuSans-31" x="1526.660156"/>
     <use xlink:href="#DejaVuSans-30" x="1590.283203"/>
     <use xlink:href="#DejaVuSans-2c" x="1653.90625"/>
     <use xlink:href="#DejaVuSans-38" x="1685.693359"/>
     <use xlink:href="#DejaVuSans-2c" x="1749.316406"/>
     <use xlink:href="#DejaVuSans-31" x="1781.103516"/>
     <use xlink:href="#DejaVuSans-39" x="1844.726562"/>
     <use xlink:href="#DejaVuSans-2c" x="1908.349609"/>
     <use xlink:href="#DejaVuSans-31" x="1940.136719"/>
     <use xlink:href="#DejaVuSans-2c" x="2003.759766"/>
     <use xlink:href="#DejaVuSans-31" x="2035.546875"/>
     <use xlink:href="#DejaVuSans-38" x="2099.169922"/>
     <use xlink:href="#DejaVuSans-2c" x="2162.792969"/>
     <use xlink:href="#DejaVuSans-31" x="2194.580078"/>
     <use xlink:href="#DejaVuSans-32" x="2258.203125"/>
     <use xlink:href="#DejaVuSans-2c" x="2321.826172"/>
     <use xlink:href="#DejaVuSans-34" x="2353.613281"/>
     <use xlink:href="#DejaVuSans-2c" x="2417.236328"/>
     <use xlink:href="#DejaVuSans-32" x="2449.023438"/>
    </g>
    <!--  -->
    <g transform="translate(189.006545 29.7555) scale(0.12 -0.12)"/>
   </g>
   <g id="PathCollection_1">
    <defs>
     <path id="mce13f7b887" d="M 0 5 
C 1.326016 5 2.597899 4.473168 3.535534 3.535534 
C 4.473168 2.597899 5 1.326016 5 0 
C 5 -1.326016 4.473168 -2.597899 3.535534 -3.535534 
C 2.597899 -4.473168 1.326016 -5 0 -5 
C -1.326016 -5 -2.597899 -4.473168 -3.535534 -3.535534 
C -4.473168 -2.597899 -5 -1.326016 -5 0 
C -5 1.326016 -4.473168 2.597899 -3.535534 3.535534 
C -2.597899 4.473168 -1.326016 5 0 5 
z
" style="stroke: #1f77b4"/>
    </defs>
    <g clip-path="url(#p52d2dcf0be)">
     <use xlink:href="#mce13f7b887" x="351.333818" y="168.8115" style="fill: #1f77b4; stroke: #1f77b4"/>
     <use xlink:href="#mce13f7b887" x="343.388956" y="131.432804" style="fill: #1f77b4; stroke: #1f77b4"/>
     <use xlink:href="#mce13f7b887" x="320.332068" y="97.712996" style="fill: #1f77b4; stroke: #1f77b4"/>
     <use xlink:href="#mce13f7b887" x="284.420122" y="70.952804" style="fill: #1f77b4; stroke: #1f77b4"/>
     <use xlink:href="#mce13f7b887" x="239.168431" y="53.771704" style="fill: #1f77b4; stroke: #1f77b4"/>
     <use xlink:href="#mce13f7b887" x="189.006545" y="47.8515" style="fill: #1f77b4; stroke: #1f77b4"/>
     <use xlink:href="#mce13f7b887" x="138.84466" y="53.771704" style="fill: #1f77b4; stroke: #1f77b4"/>
     <use xlink:href="#mce13f7b887" x="93.592969" y="70.952804" style="fill: #1f77b4; stroke: #1f77b4"/>
     <use xlink:href="#mce13f7b887" x="57.681023" y="97.712996" style="fill: #1f77b4; stroke: #1f77b4"/>
     <use xlink:href="#mce13f7b887" x="34.624135" y="131.432804" style="fill: #1f77b4; stroke: #1f77b4"/>
     <use xlink:href="#mce13f7b887" x="26.679273" y="168.8115" style="fill: #1f77b4; stroke: #1f77b4"/>
     <use xlink:href="#mce13f7b887" x="34.624135" y="206.190196" style="fill: #1f77b4; stroke: #1f77b4"/>
     <use xlink:href="#mce13f7b887" x="57.681023" y="239.910004" style="fill: #1f77b4; stroke: #1f77b4"/>
     <use xlink:href="#mce13f7b887" x="93.592969" y="266.670196" style="fill: #1f77b4; stroke: #1f77b4"/>
     <use xlink:href="#mce13f7b887" x="138.84466" y="283.851296" style="fill: #1f77b4; stroke: #1f77b4"/>
     <use xlink:href="#mce13f7b887" x="189.006545" y="289.7715" style="fill: #1f77b4; stroke: #1f77b4"/>
     <use xlink:href="#mce13f7b887" x="239.168431" y="283.851296" style="fill: #1f77b4; stroke: #1f77b4"/>
     <use xlink:href="#mce13f7b887" x="284.420122" y="266.670196" style="fill: #1f77b4; stroke: #1f77b4"/>
     <use xlink:href="#mce13f7b887" x="320.332068" y="239.910004" style="fill: #1f77b4; stroke: #1f77b4"/>
     <use xlink:href="#mce13f7b887" x="343.388956" y="206.190196" style="fill: #1f77b4; stroke: #1f77b4"/>
    </g>
   </g>
  </g>
 </g>
 <defs>
  <clipPath id="p52d2dcf0be">
   <rect x="10.446545" y="35.7555" width="357.12" height="266.112"/>
  </clipPath>
 </defs>
</svg>
